<svg width="179" height="161" viewBox="0 0 179 161" fill="none" xmlns="http://www.w3.org/2000/svg">
<path fill-rule="evenodd" clip-rule="evenodd" d="M99 -1.73097e-05C97.7286 -1.70874e-05 96.6977 1.02975 96.6977 2.29998L96.6977 158.7C96.6977 159.97 97.7286 161 99 161C100.271 161 101.302 159.97 101.302 158.7L101.302 2.29998C101.302 1.02975 100.271 -1.7532e-05 99 -1.73097e-05ZM82.8837 23C81.6123 23 80.5814 24.0297 80.5814 25.3L80.5814 158.7C80.5814 159.97 81.6123 161 82.8838 161C84.1552 161 85.1861 159.97 85.1861 158.7L85.1861 25.3C85.1861 24.0297 84.1552 23 82.8837 23ZM66.7675 46C65.496 46 64.4651 47.0297 64.4651 48.3L64.4651 158.7C64.4651 159.97 65.496 161 66.7675 161C68.0389 161 69.0698 159.97 69.0698 158.7L69.0698 48.3C69.0698 47.0297 68.0389 46 66.7675 46ZM50.6512 69C49.3797 69 48.3489 70.0297 48.3489 71.3L48.3489 158.7C48.3489 159.97 49.3797 161 50.6512 161C51.9226 161 52.9535 159.97 52.9535 158.7L52.9535 71.3C52.9535 70.0297 51.9226 69 50.6512 69ZM34.5349 92C33.2635 92 32.2326 93.0297 32.2326 94.3L32.2326 158.7C32.2326 159.97 33.2635 161 34.5349 161C35.8064 161 36.8372 159.97 36.8372 158.7L36.8372 94.3C36.8372 93.0297 35.8064 92 34.5349 92ZM18.4186 115C17.1472 115 16.1163 116.03 16.1163 117.3L16.1163 158.7C16.1163 159.97 17.1472 161 18.4186 161C19.6901 161 20.721 159.97 20.721 158.7L20.721 117.3C20.721 116.03 19.6901 115 18.4186 115ZM2.45308e-05 140.3C2.43087e-05 139.03 1.0309 138 2.30235 138C3.5738 138 4.60468 139.03 4.60468 140.3L4.60468 158.7C4.60468 159.97 3.5738 161 2.30235 161C1.0309 161 2.79701e-05 159.97 2.7748e-05 158.7L2.45308e-05 140.3ZM198 140.3C198 139.03 196.969 138 195.698 138C194.426 138 193.395 139.03 193.395 140.3L193.395 158.7C193.395 159.97 194.426 161 195.698 161C196.969 161 198 159.97 198 158.7L198 140.3ZM181.884 117.3C181.884 116.03 180.853 115 179.581 115C178.31 115 177.279 116.03 177.279 117.3L177.279 158.7C177.279 159.97 178.31 161 179.581 161C180.853 161 181.884 159.97 181.884 158.7L181.884 117.3ZM165.767 94.3C165.767 93.0296 164.737 92 163.465 92C162.194 92 161.163 93.0297 161.163 94.3L161.163 158.7C161.163 159.97 162.194 161 163.465 161C164.737 161 165.767 159.97 165.767 158.7L165.767 94.3ZM149.651 71.3C149.651 70.0297 148.62 69 147.349 69C146.077 69 145.047 70.0297 145.047 71.3L145.047 158.7C145.047 159.97 146.077 161 147.349 161C148.62 161 149.651 159.97 149.651 158.7L149.651 71.3ZM133.535 48.3C133.535 47.0297 132.504 46 131.233 46C129.961 46 128.93 47.0297 128.93 48.3L128.93 158.7C128.93 159.97 129.961 161 131.233 161C132.504 161 133.535 159.97 133.535 158.7L133.535 48.3ZM117.419 25.3C117.419 24.0297 116.388 23 115.116 23C113.845 23 112.814 24.0297 112.814 25.3L112.814 158.7C112.814 159.97 113.845 161 115.116 161C116.388 161 117.419 159.97 117.419 158.7L117.419 25.3Z" fill="#da7503"/>
</svg>
