<svg width="173" height="161" viewBox="0 0 173 161" fill="none" xmlns="http://www.w3.org/2000/svg">
<path fill-rule="evenodd" clip-rule="evenodd" d="M74 161C75.2714 161 76.3023 159.97 76.3023 158.7L76.3023 2.30001C76.3023 1.0297 75.2715 6.71509e-06 74 6.60393e-06C72.7286 6.49278e-06 71.6977 1.0297 71.6977 2.30001L71.6977 158.7C71.6977 159.97 72.7285 161 74 161ZM90.1163 138C91.3877 138 92.4186 136.97 92.4186 135.7L92.4186 2.30001C92.4186 1.0297 91.3877 8.12402e-06 90.1163 8.01286e-06C88.8448 7.90171e-06 87.814 1.0297 87.814 2.30001L87.814 135.7C87.814 136.97 88.8448 138 90.1163 138ZM106.233 115C107.504 115 108.535 113.97 108.535 112.7L108.535 2.30001C108.535 1.0297 107.504 9.53295e-06 106.233 9.42179e-06C104.961 9.31064e-06 103.93 1.0297 103.93 2.30001L103.93 112.7C103.93 113.97 104.961 115 106.233 115ZM122.349 92C123.62 92 124.651 90.9703 124.651 89.7L124.651 2.30001C124.651 1.0297 123.62 1.09419e-05 122.349 1.08307e-05C121.077 1.07196e-05 120.047 1.0297 120.047 2.30001L120.047 89.7C120.047 90.9703 121.077 92 122.349 92ZM138.465 69C139.737 69 140.767 67.9703 140.767 66.7L140.767 2.30002C140.767 1.02971 139.737 1.23508e-05 138.465 1.22397e-05C137.194 1.21285e-05 136.163 1.02971 136.163 2.30002L136.163 66.7C136.163 67.9703 137.194 69 138.465 69ZM154.581 46C155.853 46 156.884 44.9703 156.884 43.7L156.884 2.30002C156.884 1.02971 155.853 1.37597e-05 154.581 1.36486e-05C153.31 1.35374e-05 152.279 1.02971 152.279 2.30002L152.279 43.7C152.279 44.9703 153.31 46 154.581 46ZM173 20.7C173 21.9703 171.969 23 170.698 23C169.426 23 168.395 21.9703 168.395 20.7L168.395 2.30002C168.395 1.02971 169.426 1.49464e-05 170.698 1.50575e-05C171.969 1.51687e-05 173 1.02971 173 2.30002L173 20.7ZM-25 20.7C-25 21.9703 -23.9691 23 -22.6977 23C-21.4262 23 -20.3953 21.9703 -20.3953 20.7L-20.3953 2.3C-20.3953 1.02969 -21.4262 -1.73849e-06 -22.6977 -1.84965e-06C-23.9691 -1.9608e-06 -25 1.02969 -25 2.3L-25 20.7ZM-8.88372 43.7C-8.88372 44.9703 -7.85285 46 -6.5814 46C-5.30994 46 -4.27907 44.9703 -4.27907 43.7L-4.27907 2.3C-4.27907 1.02969 -5.30994 -3.29562e-07 -6.58139 -4.40716e-07C-7.85285 -5.5187e-07 -8.88371 1.02969 -8.88371 2.3L-8.88372 43.7ZM7.23255 66.7C7.23255 67.9703 8.26344 69 9.53487 69C10.8063 69 11.8372 67.9703 11.8372 66.7L11.8372 2.3C11.8372 1.02969 10.8063 1.07937e-06 9.53488 9.68213e-07C8.26344 8.57061e-07 7.23256 1.02969 7.23256 2.3L7.23255 66.7ZM23.3488 89.7C23.3488 90.9703 24.3797 92 25.6512 92C26.9226 92 27.9535 90.9703 27.9535 89.7L27.9535 2.30001C27.9535 1.0297 26.9226 2.4883e-06 25.6512 2.37714e-06C24.3797 2.26599e-06 23.3488 1.0297 23.3488 2.30001L23.3488 89.7ZM39.4651 112.7C39.4651 113.97 40.496 115 41.7674 115C43.0389 115 44.0698 113.97 44.0698 112.7L44.0698 2.30001C44.0698 1.0297 43.0389 3.89723e-06 41.7675 3.78607e-06C40.496 3.67492e-06 39.4651 1.0297 39.4651 2.30001L39.4651 112.7ZM55.5814 135.7C55.5814 136.97 56.6123 138 57.8837 138C59.1552 138 60.186 136.97 60.186 135.7L60.1861 2.30001C60.1861 1.0297 59.1552 5.30616e-06 57.8837 5.195e-06C56.6123 5.08385e-06 55.5814 1.0297 55.5814 2.30001L55.5814 135.7Z" fill="#da7503"/>
</svg>
